# xmcd CD database file
#
# Track frame offsets:
#	150
#	17212
#	46687
#
# Disc length: 847 seconds
#
# Revision: 0
# Processed by: cddbd v1.5PL3 Copyright (c) Steve Scherf et al.
# Submitted via: CDex 1.51
#
DISCID=19034d03
DTITLE=大橋りえ - Ask for me
DYEAR=1999
DGENRE=JPop
TTITLE0=Ask for me
TTITLE1=Ask for me 〜ORIENTA-RHYTHM CLUB MIX〜
TTITLE2=Ask for me 〜Instrumental〜
EXTD=YEAR: 1999
EXTT0=
EXTT1=
EXTT2=
PLAYORDER=
